<?xml version="1.0" encoding="UTF-8"?><svg id="Layer_1" xmlns="http://www.w3.org/2000/svg" viewBox="0 0 1191.12 613.59"><defs><style>.cls-1{fill:#fff;stroke:#ed1c24;stroke-miterlimit:10;stroke-width:.5px;}</style></defs><polygon class="cls-1" points="144.25 69.7 144.25 29.95 109.32 .53 75 27.64 75.08 27.64 75.08 43.08 69.42 43.08 69.42 27.64 69.42 27.64 35.1 .53 .25 29.88 .25 69.7 15.69 69.7 15.69 75.37 .25 75.37 .25 115.12 35.18 144.55 69.51 117.44 69.42 117.44 69.42 102 75.08 102 75.08 117.44 75.08 117.44 109.4 144.55 144.25 115.2 144.25 75.37 128.81 75.37 128.81 69.7 144.25 69.7"/><polygon class="cls-1" points="144.25 226.18 144.25 186.43 109.32 157 75 184.11 75.08 184.11 75.08 199.55 69.42 199.55 69.42 184.11 69.42 184.11 35.1 157 .25 186.35 .25 226.18 15.69 226.18 15.69 231.85 .25 231.85 .25 271.6 35.18 301.02 69.51 273.91 69.42 273.91 69.42 258.47 75.08 258.47 75.08 273.91 75.08 273.91 109.4 301.02 144.25 271.67 144.25 231.85 128.81 231.85 128.81 226.18 144.25 226.18"/><polygon class="cls-1" points="144.25 380.97 144.25 341.22 109.32 311.79 75 338.9 75.08 338.9 75.08 354.34 69.42 354.34 69.42 338.9 69.42 338.9 35.1 311.79 .25 341.15 .25 380.97 15.69 380.97 15.69 386.64 .25 386.64 .25 426.39 35.18 455.82 69.51 428.7 69.42 428.7 69.42 413.27 75.08 413.27 75.08 428.7 75.08 428.7 109.4 455.82 144.25 426.46 144.25 386.64 128.81 386.64 128.81 380.97 144.25 380.97"/><polygon class="cls-1" points="144.25 537.45 144.25 497.69 109.32 468.27 75 495.38 75.08 495.38 75.08 510.82 69.42 510.82 69.42 495.38 69.42 495.38 35.1 468.27 .25 497.62 .25 537.45 15.69 537.45 15.69 543.11 .25 543.11 .25 582.87 35.18 612.29 69.51 585.18 69.42 585.18 69.42 569.74 75.08 569.74 75.08 585.18 75.08 585.18 109.4 612.29 144.25 582.94 144.25 543.11 128.81 543.11 128.81 537.45 144.25 537.45"/><polygon class="cls-1" points="293.77 69.81 293.77 30.05 258.83 .63 224.52 27.74 224.6 27.74 224.6 43.18 218.93 43.18 218.93 27.74 218.94 27.74 184.61 .63 149.77 29.98 149.77 69.81 165.21 69.81 165.21 75.47 149.77 75.47 149.77 115.23 184.7 144.65 219.02 117.54 218.93 117.54 218.93 102.1 224.6 102.1 224.6 117.54 224.59 117.54 258.92 144.65 293.77 115.3 293.77 75.47 278.33 75.47 278.33 69.81 293.77 69.81"/><polygon class="cls-1" points="293.77 226.28 293.77 186.53 258.83 157.1 224.52 184.21 224.6 184.21 224.6 199.65 218.93 199.65 218.93 184.21 218.94 184.21 184.61 157.1 149.77 186.46 149.77 226.28 165.21 226.28 165.21 231.95 149.77 231.95 149.77 271.7 184.7 301.12 219.02 274.01 218.93 274.01 218.93 258.57 224.6 258.57 224.6 274.01 224.59 274.01 258.92 301.12 293.77 271.77 293.77 231.95 278.33 231.95 278.33 226.28 293.77 226.28"/><polygon class="cls-1" points="293.77 381.07 293.77 341.32 258.83 311.9 224.52 339.01 224.6 339.01 224.6 354.45 218.93 354.45 218.93 339.01 218.94 339.01 184.61 311.9 149.77 341.25 149.77 381.07 165.21 381.07 165.21 386.74 149.77 386.74 149.77 426.49 184.7 455.92 219.02 428.81 218.93 428.81 218.93 413.37 224.6 413.37 224.6 428.81 224.59 428.81 258.92 455.92 293.77 426.57 293.77 386.74 278.33 386.74 278.33 381.07 293.77 381.07"/><polygon class="cls-1" points="293.77 537.55 293.77 497.8 258.83 468.37 224.52 495.48 224.6 495.48 224.6 510.92 218.93 510.92 218.93 495.48 218.94 495.48 184.61 468.37 149.77 497.72 149.77 537.55 165.21 537.55 165.21 543.22 149.77 543.22 149.77 582.97 184.7 612.39 219.02 585.28 218.93 585.28 218.93 569.84 224.6 569.84 224.6 585.28 224.59 585.28 258.92 612.39 293.77 583.04 293.77 543.22 278.33 543.22 278.33 537.55 293.77 537.55"/><polygon class="cls-1" points="443.29 69.91 443.29 30.16 408.35 .73 374.03 27.84 374.12 27.84 374.12 43.28 368.45 43.28 368.45 27.84 368.45 27.84 334.13 .73 299.29 30.08 299.29 69.91 314.72 69.91 314.72 75.58 299.29 75.58 299.29 115.33 334.21 144.75 368.54 117.64 368.45 117.64 368.45 102.2 374.12 102.2 374.12 117.64 374.11 117.64 408.44 144.75 443.29 115.4 443.29 75.58 427.85 75.58 427.85 69.91 443.29 69.91"/><polygon class="cls-1" points="443.29 226.38 443.29 186.63 408.35 157.2 374.03 184.31 374.12 184.31 374.12 199.75 368.45 199.75 368.45 184.31 368.45 184.31 334.13 157.2 299.29 186.56 299.29 226.38 314.72 226.38 314.72 232.05 299.29 232.05 299.29 271.8 334.21 301.23 368.54 274.11 368.45 274.11 368.45 258.67 374.12 258.67 374.12 274.11 374.11 274.11 408.44 301.23 443.29 271.87 443.29 232.05 427.85 232.05 427.85 226.38 443.29 226.38"/><polygon class="cls-1" points="443.29 381.18 443.29 341.42 408.35 312 374.03 339.11 374.12 339.11 374.12 354.55 368.45 354.55 368.45 339.11 368.45 339.11 334.13 312 299.29 341.35 299.29 381.18 314.72 381.18 314.72 386.84 299.29 386.84 299.29 426.6 334.21 456.02 368.54 428.91 368.45 428.91 368.45 413.47 374.12 413.47 374.12 428.91 374.11 428.91 408.44 456.02 443.29 426.67 443.29 386.84 427.85 386.84 427.85 381.18 443.29 381.18"/><polygon class="cls-1" points="443.29 537.65 443.29 497.9 408.35 468.47 374.03 495.58 374.12 495.58 374.12 511.02 368.45 511.02 368.45 495.58 368.45 495.58 334.13 468.47 299.29 497.83 299.29 537.65 314.72 537.65 314.72 543.32 299.29 543.32 299.29 583.07 334.21 612.5 368.54 585.38 368.45 585.38 368.45 569.94 374.12 569.94 374.12 585.38 374.11 585.38 408.44 612.5 443.29 583.14 443.29 543.32 427.85 543.32 427.85 537.65 443.29 537.65"/><polygon class="cls-1" points="592.8 70.01 592.8 30.26 557.87 .83 523.55 27.94 523.64 27.94 523.64 43.38 517.97 43.38 517.97 27.94 517.97 27.94 483.65 .83 448.8 30.19 448.8 70.01 464.24 70.01 464.24 75.68 448.8 75.68 448.8 115.43 483.73 144.86 518.06 117.74 517.97 117.74 517.97 102.3 523.64 102.3 523.64 117.74 523.63 117.74 557.96 144.86 592.8 115.5 592.8 75.68 577.36 75.68 577.36 70.01 592.8 70.01"/><polygon class="cls-1" points="592.8 226.48 592.8 186.73 557.87 157.31 523.55 184.41 523.64 184.41 523.64 199.85 517.97 199.85 517.97 184.41 517.97 184.41 483.65 157.31 448.8 186.66 448.8 226.48 464.24 226.48 464.24 232.15 448.8 232.15 448.8 271.9 483.73 301.33 518.06 274.22 517.97 274.22 517.97 258.78 523.64 258.78 523.64 274.22 523.63 274.22 557.96 301.33 592.8 271.97 592.8 232.15 577.36 232.15 577.36 226.48 592.8 226.48"/><polygon class="cls-1" points="592.8 381.28 592.8 341.53 557.87 312.1 523.55 339.21 523.64 339.21 523.64 354.65 517.97 354.65 517.97 339.21 517.97 339.21 483.65 312.1 448.8 341.45 448.8 381.28 464.24 381.28 464.24 386.95 448.8 386.95 448.8 426.7 483.73 456.12 518.06 429.01 517.97 429.01 517.97 413.57 523.64 413.57 523.64 429.01 523.63 429.01 557.96 456.12 592.8 426.77 592.8 386.95 577.36 386.95 577.36 381.28 592.8 381.28"/><polygon class="cls-1" points="592.8 537.75 592.8 498 557.87 468.57 523.55 495.68 523.64 495.68 523.64 511.12 517.97 511.12 517.97 495.68 517.97 495.68 483.65 468.57 448.8 497.93 448.8 537.75 464.24 537.75 464.24 543.42 448.8 543.42 448.8 583.17 483.73 612.6 518.06 585.48 517.97 585.48 517.97 570.04 523.64 570.04 523.64 585.48 523.63 585.48 557.96 612.6 592.8 583.24 592.8 543.42 577.36 543.42 577.36 537.75 592.8 537.75"/><polygon class="cls-1" points="742.32 70.11 742.32 30.36 707.39 .93 673.07 28.04 673.15 28.04 673.15 43.48 667.49 43.48 667.49 28.04 667.49 28.04 633.17 .93 598.32 30.29 598.32 70.11 613.76 70.11 613.76 75.78 598.32 75.78 598.32 115.53 633.25 144.96 667.58 117.84 667.49 117.84 667.49 102.4 673.15 102.4 673.15 117.84 673.15 117.84 707.47 144.96 742.32 115.6 742.32 75.78 726.88 75.78 726.88 70.11 742.32 70.11"/><polygon class="cls-1" points="742.32 226.58 742.32 186.83 707.39 157.41 673.07 184.52 673.15 184.52 673.15 199.96 667.49 199.96 667.49 184.52 667.49 184.52 633.17 157.41 598.32 186.76 598.32 226.58 613.76 226.58 613.76 232.25 598.32 232.25 598.32 272 633.25 301.43 667.58 274.32 667.49 274.32 667.49 258.88 673.15 258.88 673.15 274.32 673.15 274.32 707.47 301.43 742.32 272.08 742.32 232.25 726.88 232.25 726.88 226.58 742.32 226.58"/><polygon class="cls-1" points="742.32 381.38 742.32 341.63 707.39 312.2 673.07 339.31 673.15 339.31 673.15 354.75 667.49 354.75 667.49 339.31 667.49 339.31 633.17 312.2 598.32 341.56 598.32 381.38 613.76 381.38 613.76 387.05 598.32 387.05 598.32 426.8 633.25 456.23 667.58 429.11 667.49 429.11 667.49 413.67 673.15 413.67 673.15 429.11 673.15 429.11 707.47 456.23 742.32 426.87 742.32 387.05 726.88 387.05 726.88 381.38 742.32 381.38"/><polygon class="cls-1" points="742.32 537.85 742.32 498.1 707.39 468.68 673.07 495.79 673.15 495.79 673.15 511.23 667.49 511.23 667.49 495.79 667.49 495.79 633.17 468.68 598.32 498.03 598.32 537.85 613.76 537.85 613.76 543.52 598.32 543.52 598.32 583.27 633.25 612.7 667.58 585.59 667.49 585.59 667.49 570.15 673.15 570.15 673.15 585.59 673.15 585.59 707.47 612.7 742.32 583.34 742.32 543.52 726.88 543.52 726.88 537.85 742.32 537.85"/><polygon class="cls-1" points="891.84 69.6 891.84 29.85 856.9 .42 822.59 27.53 822.67 27.53 822.67 42.97 817 42.97 817 27.53 817.01 27.53 782.68 .42 747.84 29.78 747.84 69.6 763.28 69.6 763.28 75.27 747.84 75.27 747.84 115.02 782.77 144.45 817.09 117.33 817 117.33 817 101.89 822.67 101.89 822.67 117.33 822.66 117.33 856.99 144.45 891.84 115.09 891.84 75.27 876.4 75.27 876.4 69.6 891.84 69.6"/><polygon class="cls-1" points="891.84 226.07 891.84 186.32 856.9 156.9 822.59 184.01 822.67 184.01 822.67 199.45 817 199.45 817 184.01 817.01 184.01 782.68 156.9 747.84 186.25 747.84 226.07 763.28 226.07 763.28 231.74 747.84 231.74 747.84 271.5 782.77 300.92 817.09 273.81 817 273.81 817 258.37 822.67 258.37 822.67 273.81 822.66 273.81 856.99 300.92 891.84 271.57 891.84 231.74 876.4 231.74 876.4 226.07 891.84 226.07"/><polygon class="cls-1" points="891.84 380.87 891.84 341.12 856.9 311.69 822.59 338.8 822.67 338.8 822.67 354.24 817 354.24 817 338.8 817.01 338.8 782.68 311.69 747.84 341.05 747.84 380.87 763.28 380.87 763.28 386.54 747.84 386.54 747.84 426.29 782.77 455.72 817.09 428.6 817 428.6 817 413.16 822.67 413.16 822.67 428.6 822.66 428.6 856.99 455.72 891.84 426.36 891.84 386.54 876.4 386.54 876.4 380.87 891.84 380.87"/><polygon class="cls-1" points="891.84 537.34 891.84 497.59 856.9 468.17 822.59 495.28 822.67 495.28 822.67 510.72 817 510.72 817 495.28 817.01 495.28 782.68 468.17 747.84 497.52 747.84 537.34 763.28 537.34 763.28 543.01 747.84 543.01 747.84 582.76 782.77 612.19 817.09 585.08 817 585.08 817 569.64 822.67 569.64 822.67 585.08 822.66 585.08 856.99 612.19 891.84 582.84 891.84 543.01 876.4 543.01 876.4 537.34 891.84 537.34"/><polygon class="cls-1" points="1041.36 69.5 1041.36 29.75 1006.42 .32 972.1 27.43 972.19 27.43 972.19 42.87 966.52 42.87 966.52 27.43 966.52 27.43 932.2 .32 897.36 29.68 897.36 69.5 912.8 69.5 912.8 75.17 897.36 75.17 897.36 114.92 932.28 144.35 966.61 117.23 966.52 117.23 966.52 101.79 972.19 101.79 972.19 117.23 972.18 117.23 1006.51 144.35 1041.36 114.99 1041.36 75.17 1025.92 75.17 1025.92 69.5 1041.36 69.5"/><polygon class="cls-1" points="1041.36 225.97 1041.36 186.22 1006.42 156.8 972.1 183.91 972.19 183.91 972.19 199.34 966.52 199.34 966.52 183.91 966.52 183.91 932.2 156.8 897.36 186.15 897.36 225.97 912.8 225.97 912.8 231.64 897.36 231.64 897.36 271.39 932.28 300.82 966.61 273.71 966.52 273.71 966.52 258.27 972.19 258.27 972.19 273.71 972.18 273.71 1006.51 300.82 1041.36 271.46 1041.36 231.64 1025.92 231.64 1025.92 225.97 1041.36 225.97"/><polygon class="cls-1" points="1041.36 380.77 1041.36 341.02 1006.42 311.59 972.1 338.7 972.19 338.7 972.19 354.14 966.52 354.14 966.52 338.7 966.52 338.7 932.2 311.59 897.36 340.95 897.36 380.77 912.8 380.77 912.8 386.44 897.36 386.44 897.36 426.19 932.28 455.61 966.61 428.5 966.52 428.5 966.52 413.06 972.19 413.06 972.19 428.5 972.18 428.5 1006.51 455.61 1041.36 426.26 1041.36 386.44 1025.92 386.44 1025.92 380.77 1041.36 380.77"/><polygon class="cls-1" points="1041.36 537.24 1041.36 497.49 1006.42 468.06 972.1 495.17 972.19 495.17 972.19 510.61 966.52 510.61 966.52 495.17 966.52 495.17 932.2 468.06 897.36 497.42 897.36 537.24 912.8 537.24 912.8 542.91 897.36 542.91 897.36 582.66 932.28 612.09 966.61 584.97 966.52 584.97 966.52 569.53 972.19 569.53 972.19 584.97 972.18 584.97 1006.51 612.09 1041.36 582.73 1041.36 542.91 1025.92 542.91 1025.92 537.24 1041.36 537.24"/><polygon class="cls-1" points="1190.87 69.75 1190.87 30 1155.94 .57 1121.62 27.68 1121.71 27.68 1121.71 43.12 1116.04 43.12 1116.04 27.68 1116.04 27.68 1081.72 .57 1046.87 29.93 1046.87 69.75 1062.31 69.75 1062.31 75.42 1046.87 75.42 1046.87 115.17 1081.8 144.6 1116.13 117.48 1116.04 117.48 1116.04 102.04 1121.71 102.04 1121.71 117.48 1121.7 117.48 1156.03 144.6 1190.87 115.24 1190.87 75.42 1175.43 75.42 1175.43 69.75 1190.87 69.75"/><polygon class="cls-1" points="1190.87 225.97 1190.87 186.22 1155.94 156.8 1121.62 183.91 1121.71 183.91 1121.71 199.34 1116.04 199.34 1116.04 183.91 1116.04 183.91 1081.72 156.8 1046.87 186.15 1046.87 225.97 1062.31 225.97 1062.31 231.64 1046.87 231.64 1046.87 271.39 1081.8 300.82 1116.13 273.71 1116.04 273.71 1116.04 258.27 1121.71 258.27 1121.71 273.71 1121.7 273.71 1156.03 300.82 1190.87 271.46 1190.87 231.64 1175.43 231.64 1175.43 225.97 1190.87 225.97"/><polygon class="cls-1" points="1190.87 382.2 1190.87 342.44 1155.94 313.02 1121.62 340.13 1121.71 340.13 1121.71 355.57 1116.04 355.57 1116.04 340.13 1116.04 340.13 1081.72 313.02 1046.87 342.37 1046.87 382.2 1062.31 382.2 1062.31 387.86 1046.87 387.86 1046.87 427.62 1081.8 457.04 1116.13 429.93 1116.04 429.93 1116.04 414.49 1121.71 414.49 1121.71 429.93 1121.7 429.93 1156.03 457.04 1190.87 427.69 1190.87 387.86 1175.43 387.86 1175.43 382.2 1190.87 382.2"/><polygon class="cls-1" points="1190.87 538.42 1190.87 498.67 1155.94 469.24 1121.62 496.35 1121.71 496.35 1121.71 511.79 1116.04 511.79 1116.04 496.35 1116.04 496.35 1081.72 469.24 1046.87 498.6 1046.87 538.42 1062.31 538.42 1062.31 544.09 1046.87 544.09 1046.87 583.84 1081.8 613.26 1116.13 586.15 1116.04 586.15 1116.04 570.71 1121.71 570.71 1121.71 586.15 1121.7 586.15 1156.03 613.26 1190.87 583.91 1190.87 544.09 1175.43 544.09 1175.43 538.42 1190.87 538.42"/></svg>