<?xml version="1.0" encoding="UTF-8"?><svg id="Layer_1" xmlns="http://www.w3.org/2000/svg" viewBox="0 0 595.28 276.3"><defs><style>.cls-1{fill:none;stroke:#ed1c24;stroke-miterlimit:10;stroke-width:.5px;}</style></defs><path class="cls-1" d="M262.28,188.38l-22.95-22.95c-6.61-6.61-10.52-15.21-11.19-24.45h-10.07v-5.67h10.07c.67-9.24,4.57-17.83,11.19-24.45l22.95-22.95c12.86-12.86,12.86-33.79,0-46.65-12.86-12.86-33.78-12.86-46.65,0l-22.95,22.95c-6.61,6.61-15.21,10.52-24.45,11.19v10.07h-5.67v-10.07c-9.24-.67-17.83-4.57-24.45-11.19l-22.95-22.95c-12.86-12.86-33.78-12.86-46.65,0-12.86,12.86-12.86,33.79,0,46.65l22.95,22.95c6.61,6.61,10.52,15.21,11.19,24.45h10.07v5.67h-10.07c-.67,9.24-4.57,17.83-11.19,24.45l-22.95,22.95c-12.86,12.86-12.86,33.79,0,46.65s33.78,12.86,46.65,0l22.95-22.95c6.61-6.61,15.21-10.52,24.45-11.19v-10.07h5.67v10.07c9.24,.67,17.83,4.57,24.45,11.19l22.95,22.95c12.86,12.86,33.78,12.86,46.65,0s12.86-33.79,0-46.65Z"/><polygon class="cls-1" points="485.87 33.99 435.07 74.12 435.09 74.12 435.09 89.56 429.42 89.56 429.42 74.2 378.51 33.99 328.11 76.45 328.11 199.75 378.63 242.31 429.55 202.09 429.42 202.09 429.42 186.65 435.09 186.65 435.09 202.09 435.08 202.09 485.99 242.31 536.39 199.85 536.39 76.55 485.87 33.99"/></svg>