<svg width="319" height="229" viewBox="0 0 319 229" fill="none" xmlns="http://www.w3.org/2000/svg">
<path d="M168.223 75.9973C185.351 73.8386 198.84 60.3507 200.998 43.2227" stroke="black" stroke-width="1.33333" stroke-linecap="round" stroke-linejoin="round"/>
<path d="M126 43.2226H144.601V33.7733H126" stroke="black" stroke-width="1.33333" stroke-linecap="round" stroke-linejoin="round"/>
<path d="M168.223 75.9973V57.396H158.774V75.9973" stroke="black" stroke-width="1.33333" stroke-linecap="round" stroke-linejoin="round"/>
<path d="M200.998 33.7733H182.396V43.2226H200.998" stroke="black" stroke-width="1.33333" stroke-linecap="round" stroke-linejoin="round"/>
<path d="M200.998 33.7734C198.84 16.6467 185.351 3.15733 168.223 1" stroke="black" stroke-width="1.33333" stroke-linecap="round" stroke-linejoin="round"/>
<path d="M158.774 1C141.647 3.15733 128.158 16.6467 126 33.7734" stroke="black" stroke-width="1.33333" stroke-linecap="round" stroke-linejoin="round"/>
<path d="M126 43.2227C128.158 60.3507 141.647 73.8386 158.774 75.9973" stroke="black" stroke-width="1.33333" stroke-linecap="round" stroke-linejoin="round"/>
<path d="M158.774 1V19.6013H168.223V1" stroke="black" stroke-width="1.33333" stroke-linecap="round" stroke-linejoin="round"/>
<path fill-rule="evenodd" clip-rule="evenodd" d="M71.8665 84H38.7945L22.2599 112.641L38.6252 122.089L33.9012 130.272L17.5355 120.824L1 149.464L17.5355 178.104L33.9012 168.656L38.6252 176.839L22.2599 186.287L38.7945 214.927H71.8665V196.029H81.3145V214.927H114.385L130.921 186.287L114.556 176.839L119.28 168.656L135.645 178.104L152.181 149.464L135.645 120.824L119.28 130.272L114.556 122.089L130.921 112.641L114.385 84H81.3145V102.899H71.8665V84Z" stroke="black" stroke-width="1.33333" stroke-linecap="round" stroke-linejoin="round"/>
<path fill-rule="evenodd" clip-rule="evenodd" d="M294.191 187.568L317.53 155.445L294.191 123.321L278.902 134.429L273.349 126.785L288.637 115.677L265.298 83.5546L227.535 95.8239L233.375 113.797L224.388 116.717L218.548 98.7439L180.785 111.015V150.721H199.683V160.169H180.785V199.876L218.548 212.147L224.388 194.173L233.375 197.093L227.535 215.067L265.298 227.336L288.637 195.213L273.349 184.105L278.902 176.461L294.191 187.568Z" stroke="black" stroke-width="1.33333" stroke-linecap="round" stroke-linejoin="round"/>
</svg>
